Coordinates
version=1
nRows=11
nColumns=36
inDegrees=yes

Units are S.I. units (second, meters, Newtons, ...)
If the header above contains a line with 'inDegrees', this indicates whether rotational values are in degrees (yes) or radians (no).

endheader
time	pelvis_tilt	pelvis_list	pelvis_rotation	pelvis_tx	pelvis_ty	pelvis_tz	hip_flexion_r	hip_adduction_r	hip_rotation_r	knee_angle_r	knee_angle_r_beta	ankle_angle_r	subtalar_angle_r	mtp_angle_r	hip_flexion_l	hip_adduction_l	hip_rotation_l	knee_angle_l	knee_angle_l_beta	ankle_angle_l	subtalar_angle_l	mtp_angle_l	lumbar_extension	lumbar_bending	lumbar_rotation	arm_flex_r	arm_add_r	arm_rot_r	elbow_flex_r	pro_sup_r	arm_flex_l	arm_add_l	arm_rot_l	elbow_flex_l	pro_sup_l
      4.40416670	     -6.19799679	      0.05215161	      0.98804593	      0.29935694	      1.08918103	      0.00645697	      6.73441145	     -1.23248290	     -6.19967486	      8.76531258	      0.15298356	      6.70705866	     -7.97031009	     -7.49999987	      5.02166028	     -2.18798895	     -4.21852464	      7.00749344	      0.12230383	      7.66479966	      1.88908706	     -7.49999987	     -9.51417607	     -0.15590533	      1.41339266	     -1.67763977	     -7.50665417	      8.49283175	     55.89745050	     76.61567009	      2.86669874	     -8.44187609	     18.71935027	     54.74631820	     85.50817213
      4.40833330	     -6.25368616	     -0.00853703	      1.00018083	      0.30046109	      1.08663123	      0.00616861	      6.72924497	     -1.16958027	     -6.09356599	      8.68364969	      0.15155828	      6.69884317	     -8.37531311	     -7.49999987	      5.00364263	     -2.21428712	     -3.95231827	      6.81767031	      0.11899079	      7.79610184	      1.82167731	     -7.49999987	     -9.33147432	     -0.04890503	      1.65732662	     -1.98067286	     -7.58091429	      7.85110196	     55.22157858	     78.06728616	      2.85146581	     -8.51096744	     18.91607464	     53.61621023	     88.08948753
      4.41250000	     -6.26893580	     -0.03437839	      1.00282230	      0.29942138	      1.08637876	      0.00367108	      6.67793401	     -1.17597125	     -6.07544897	      8.59281124	      0.14997285	      6.72154945	     -8.60834824	     -7.49999987	      4.95099308	     -2.18402288	     -3.61894208	      6.64699452	      0.11601194	      7.92752015	      1.64705745	     -7.49999987	     -9.22586042	      0.10139653	      1.64823187	     -2.05242704	     -7.76831066	      7.63833743	     54.45266633	     77.64278244	      2.48350189	     -8.41109518	     18.54183501	     52.81257827	     87.57510208
      4.41666670	     -6.29901411	     -0.04005326	      1.00489567	      0.30091874	      1.08644318	     -0.00007201	      6.60477071	     -1.26494003	     -6.07090109	      8.45850613	      0.14762878	      6.70689344	     -8.79430550	     -7.49999987	      4.86057946	     -2.08004207	     -3.33146000	      6.41686422	      0.11199541	      7.99501724	      1.55264461	     -7.49999987	     -9.08039421	      0.21980354	      1.63954019	     -2.16882151	     -8.04725462	      7.43866712	     53.71959386	     76.95377068	      2.09869774	     -8.24979474	     18.27622069	     51.97158991	     86.77304055
      4.42083330	     -6.39619798	      0.00496176	      0.98437532	      0.29975342	      1.08829534	     -0.00160602	      6.62916770	     -1.42473812	     -6.04722679	      8.33251023	      0.14542974	      6.68140510	     -8.99141905	     -7.49999987	      4.84303240	     -1.88643354	     -3.07276579	      6.16049506	      0.10752092	      8.00762792	      1.36047833	     -7.49999987	     -8.79525262	      0.33966803	      1.65885665	     -2.20551535	     -8.27467392	      7.20656500	     52.71084380	     76.43456540	      1.89743393	     -8.02628014	     18.07594507	     50.74955271	     86.14991727
      4.42500000	     -6.47191949	      0.01794237	      0.99305063	      0.29836996	      1.08574426	     -0.00071041	      6.67365260	     -1.51993374	     -6.01766263	      8.20585722	      0.14321923	      6.69677184	     -9.19626081	     -7.49999987	      4.85831191	     -1.76301120	     -2.76780017	      6.01071830	      0.10490682	      7.98470488	      0.89808136	     -7.49999987	     -8.59853656	      0.47273983	      1.66745767	     -2.20146407	     -8.47758342	      6.91702553	     51.76483787	     76.23025430	      1.79514523	     -7.90887300	     17.94283003	     49.55727538	     85.99017561
      4.42916670	     -6.54229656	      0.04407650	      1.01253582	      0.29887219	      1.08380265	     -0.00220278	      6.68782867	     -1.62308181	     -6.04201814	      8.09103578	      0.14121521	      6.69649148	     -9.30185625	     -7.49999987	      4.87832228	     -1.64146679	     -2.44111081	      5.90056359	      0.10298426	      7.90034223	      0.43274559	     -7.49999987	     -8.42738838	      0.58393471	      1.65828261	     -2.33611662	     -8.66216099	      6.58139940	     51.07269323	     75.69222462	      1.56362146	     -7.81779500	     17.79385363	     48.68232162	     85.41806083
      4.43333330	     -6.79607739	      0.08218165	      0.99862178	      0.29981423	      1.08040655	     -0.00241188	      6.95725573	     -1.70331062	     -5.95430725	      8.08594673	      0.14112639	      6.85987940	     -9.47597476	     -7.49999987	      5.13182698	     -1.53190231	     -2.14141024	      5.89690628	      0.10292043	      7.94570441	     -0.01489392	     -7.49999987	     -7.94336042	      0.66593460	      1.94397637	     -2.74867655	     -8.66939519	      5.36057661	     50.34738231	     78.95332057	      1.48266113	     -7.62521817	     17.36175371	     47.38128208	     90.17328324
      4.43750000	     -6.84729226	      0.08248181	      0.95529446	      0.29834414	      1.07989811	     -0.00120963	      7.01671344	     -1.69199745	     -5.91593099	      8.07828009	      0.14099259	      7.00726064	     -9.69988764	     -7.49999987	      5.14944127	     -1.50560487	     -1.93117866	      5.86425710	      0.10235059	      8.02007832	     -0.33044623	     -7.49999987	     -7.85616418	      0.73342770	      1.89799713	     -2.76302205	     -8.78631136	      5.14403412	     49.57707566	     78.71864619	      1.29201574	     -7.71196005	     17.10607939	     46.55834990	     89.84496021
      4.44166670	     -6.87368771	      0.07015590	      0.95131424	      0.30141693	      1.07795343	     -0.00055980	      6.96736104	     -1.63402537	     -5.82446492	      7.99995505	      0.13962556	      7.15870823	     -9.87887909	     -7.49999987	      5.11936076	     -1.50757241	     -1.67996899	      5.88014339	      0.10262786	      8.12835705	     -0.60354624	     -7.49999987	     -7.71691271	      0.77422249	      1.83039795	     -2.87707139	     -8.79813713	      4.92959149	     48.79094837	     77.17523078	      0.93281032	     -7.79151968	     16.86165274	     45.77958834	     87.83377283
      4.44583330	     -7.05351644	      0.06657952	      0.98571329	      0.30127073	      1.07399477	     -0.00061996	      7.14053202	     -1.61276238	     -5.99780776	      8.02812790	      0.14011726	      7.67718653	     -9.61054124	     -7.49999987	      5.31102869	     -1.50297242	     -1.38439042	      5.95450564	      0.10392573	      8.37563033	     -0.81469097	     -7.49999987	     -7.30498609	      0.79860828	      1.72442957	     -2.98062867	     -8.82454685	      4.79084842	     47.71787430	     76.35658694	      0.67471734	     -7.84392098	     16.71691136	     44.72502962	     86.56673610
